<?xml version="1.0" encoding="utf-8"?>
<!-- Generator: Adobe Illustrator 20.1.0, SVG Export Plug-In . SVG Version: 6.00 Build 0)  -->
<svg version="1.1" id="Layer_1" xmlns="http://www.w3.org/2000/svg" xmlns:xlink="http://www.w3.org/1999/xlink" x="0px" y="0px"
	 viewBox="0 0 656 109.5" style="enable-background:new 0 0 656 109.5;" xml:space="preserve">
<style type="text/css">
	.st0{fill:#FFFFFF;}
	.st1{fill:none;stroke:#FFFFFF;stroke-width:0.75;stroke-miterlimit:10;}
	.st2{fill:none;stroke:#FFFFFF;stroke-width:0.75;stroke-miterlimit:10;stroke-dasharray:0.6506,1.3011;}
	.st3{fill:none;stroke:#FFFFFF;stroke-width:0.75;stroke-miterlimit:10;stroke-dasharray:0.7404,1.4809;}
	.st4{fill:none;stroke:#FFFFFF;stroke-width:0.75;stroke-miterlimit:10;stroke-dasharray:0.781,1.5621;}
	.st5{fill:none;stroke:#FFFFFF;stroke-width:0.75;stroke-miterlimit:10;stroke-dasharray:0.8042,1.6084;}
	.st6{fill:none;stroke:#FFFFFF;stroke-width:0.75;stroke-miterlimit:10;stroke-dasharray:0.7184,1.4369;}
	.st7{fill:none;stroke:#FFFFFF;stroke-width:0.75;stroke-miterlimit:10;stroke-dasharray:0.7197,1.4395;}
	.st8{fill:none;stroke:#FFFFFF;stroke-width:0.75;stroke-miterlimit:10;stroke-dasharray:0.741,1.4819;}
	.st9{fill:none;stroke:#FFFFFF;stroke-width:0.75;stroke-miterlimit:10;stroke-dasharray:0.7564,1.5128;}
	.st10{fill:none;stroke:#FFFFFF;stroke-width:0.75;stroke-miterlimit:10;stroke-dasharray:0.7688,1.5376;}
	.st11{fill:none;stroke:#FFFFFF;stroke-width:0.75;stroke-miterlimit:10;stroke-dasharray:0.7793,1.5585;}
	.st12{fill:none;stroke:#FFFFFF;stroke-width:0.75;stroke-miterlimit:10;stroke-dasharray:0.7267,1.4535;}
	.st13{fill:none;stroke:#FFFFFF;stroke-width:0.75;stroke-miterlimit:10;stroke-dasharray:0.7411,1.4823;}
	.st14{fill:none;stroke:#FFFFFF;stroke-width:0.75;stroke-miterlimit:10;stroke-dasharray:0.7506,1.5012;}
	.st15{fill:none;stroke:#FFFFFF;stroke-width:0.75;stroke-miterlimit:10;stroke-dasharray:0.759,1.5179;}
	.st16{fill:none;stroke:#FFFFFF;stroke-width:0.75;stroke-miterlimit:10;stroke-dasharray:0.7658,1.5317;}
	.st17{fill:none;stroke:#FFFFFF;stroke-width:0.75;stroke-miterlimit:10;stroke-dasharray:0.7337,1.4673;}
	.st18{fill:none;stroke:#FFFFFF;stroke-width:0.75;stroke-miterlimit:10;stroke-dasharray:0.7412,1.4825;}
	.st19{fill:none;stroke:#FFFFFF;stroke-width:0.75;stroke-miterlimit:10;stroke-dasharray:0.7508,1.5017;}
	.st20{fill:none;stroke:#FFFFFF;stroke-width:1.1113;stroke-miterlimit:10;}
	.st21{opacity:0.5;fill:#FFFFFF;}
	.st22{fill:#352D38;}
	.st23{fill:none;stroke:#352D38;stroke-width:0.75;stroke-miterlimit:10;}
	.st24{fill:none;stroke:#352D38;stroke-width:0.75;stroke-miterlimit:10;stroke-dasharray:0.6506,1.3011;}
	.st25{fill:none;stroke:#352D38;stroke-width:0.75;stroke-miterlimit:10;stroke-dasharray:0.7404,1.4809;}
	.st26{fill:none;stroke:#352D38;stroke-width:0.75;stroke-miterlimit:10;stroke-dasharray:0.781,1.5621;}
	.st27{fill:none;stroke:#352D38;stroke-width:0.75;stroke-miterlimit:10;stroke-dasharray:0.8042,1.6084;}
	.st28{fill:none;stroke:#352D38;stroke-width:0.75;stroke-miterlimit:10;stroke-dasharray:0.7184,1.4369;}
	.st29{fill:none;stroke:#352D38;stroke-width:0.75;stroke-miterlimit:10;stroke-dasharray:0.7197,1.4395;}
	.st30{fill:none;stroke:#352D38;stroke-width:0.75;stroke-miterlimit:10;stroke-dasharray:0.741,1.4819;}
	.st31{fill:none;stroke:#352D38;stroke-width:0.75;stroke-miterlimit:10;stroke-dasharray:0.7564,1.5128;}
	.st32{fill:none;stroke:#352D38;stroke-width:0.75;stroke-miterlimit:10;stroke-dasharray:0.7688,1.5376;}
	.st33{fill:none;stroke:#352D38;stroke-width:0.75;stroke-miterlimit:10;stroke-dasharray:0.7793,1.5585;}
	.st34{fill:none;stroke:#352D38;stroke-width:0.75;stroke-miterlimit:10;stroke-dasharray:0.7267,1.4535;}
	.st35{fill:none;stroke:#352D38;stroke-width:0.75;stroke-miterlimit:10;stroke-dasharray:0.7411,1.4823;}
	.st36{fill:none;stroke:#352D38;stroke-width:0.75;stroke-miterlimit:10;stroke-dasharray:0.7506,1.5012;}
	.st37{fill:none;stroke:#352D38;stroke-width:0.75;stroke-miterlimit:10;stroke-dasharray:0.759,1.5179;}
	.st38{fill:none;stroke:#352D38;stroke-width:0.75;stroke-miterlimit:10;stroke-dasharray:0.7658,1.5317;}
	.st39{fill:none;stroke:#352D38;stroke-width:0.75;stroke-miterlimit:10;stroke-dasharray:0.7337,1.4673;}
	.st40{fill:none;stroke:#352D38;stroke-width:0.75;stroke-miterlimit:10;stroke-dasharray:0.7412,1.4825;}
	.st41{fill:none;stroke:#352D38;stroke-width:0.75;stroke-miterlimit:10;stroke-dasharray:0.7508,1.5017;}
	.st42{fill:none;stroke:#352D38;stroke-miterlimit:10;}
	.st43{opacity:0.5;fill:#352D38;}
	.st44{fill:#0B1F2C;}
	.st45{fill:none;stroke:#0B1F2C;stroke-width:0.75;stroke-miterlimit:10;}
	.st46{fill:none;stroke:#0B1F2C;stroke-width:0.75;stroke-miterlimit:10;stroke-dasharray:0.6506,1.3011;}
	.st47{fill:none;stroke:#0B1F2C;stroke-width:0.75;stroke-miterlimit:10;stroke-dasharray:0.7404,1.4809;}
	.st48{fill:none;stroke:#0B1F2C;stroke-width:0.75;stroke-miterlimit:10;stroke-dasharray:0.781,1.5621;}
	.st49{fill:none;stroke:#0B1F2C;stroke-width:0.75;stroke-miterlimit:10;stroke-dasharray:0.8042,1.6084;}
	.st50{fill:none;stroke:#0B1F2C;stroke-width:0.75;stroke-miterlimit:10;stroke-dasharray:0.7184,1.4369;}
	.st51{fill:none;stroke:#0B1F2C;stroke-width:0.75;stroke-miterlimit:10;stroke-dasharray:0.7197,1.4395;}
	.st52{fill:none;stroke:#0B1F2C;stroke-width:0.75;stroke-miterlimit:10;stroke-dasharray:0.741,1.4819;}
	.st53{fill:none;stroke:#0B1F2C;stroke-width:0.75;stroke-miterlimit:10;stroke-dasharray:0.7564,1.5128;}
	.st54{fill:none;stroke:#0B1F2C;stroke-width:0.75;stroke-miterlimit:10;stroke-dasharray:0.7688,1.5376;}
	.st55{fill:none;stroke:#0B1F2C;stroke-width:0.75;stroke-miterlimit:10;stroke-dasharray:0.7793,1.5585;}
	.st56{fill:none;stroke:#0B1F2C;stroke-width:0.75;stroke-miterlimit:10;stroke-dasharray:0.7267,1.4535;}
	.st57{fill:none;stroke:#0B1F2C;stroke-width:0.75;stroke-miterlimit:10;stroke-dasharray:0.7411,1.4823;}
	.st58{fill:none;stroke:#0B1F2C;stroke-width:0.75;stroke-miterlimit:10;stroke-dasharray:0.7506,1.5012;}
	.st59{fill:none;stroke:#0B1F2C;stroke-width:0.75;stroke-miterlimit:10;stroke-dasharray:0.759,1.5179;}
	.st60{fill:none;stroke:#0B1F2C;stroke-width:0.75;stroke-miterlimit:10;stroke-dasharray:0.7658,1.5317;}
	.st61{fill:none;stroke:#0B1F2C;stroke-width:0.75;stroke-miterlimit:10;stroke-dasharray:0.7337,1.4673;}
	.st62{fill:none;stroke:#0B1F2C;stroke-width:0.75;stroke-miterlimit:10;stroke-dasharray:0.7412,1.4825;}
	.st63{fill:none;stroke:#0B1F2C;stroke-width:0.75;stroke-miterlimit:10;stroke-dasharray:0.7508,1.5017;}
	.st64{fill:none;stroke:#0B1F2C;stroke-miterlimit:10;}
	.st65{opacity:0.5;fill:#263746;}
</style>
<g>
	<g>
		<g>
			<path class="st0" d="M124.7,39h23.8c10.7,0,17.1,4.7,17.1,14.3c0,5-2.2,9.1-7.9,11.8v0.1c6.4,1.7,9.6,7.2,9.6,13.4
				c0,10.4-8.3,16-17.5,16h-25.1V39z M147.3,61.8c5.2,0,8.2-2.6,8.2-7.2c0-4.8-3.5-6.8-8.7-6.8H135v14H147.3z M148,85.7
				c5.5,0,9-2.7,9-7.8c0-5.1-3.2-7.4-9-7.4H135v15.2H148z"/>
			<path class="st0" d="M176.2,39h10.3v22.6h22.2V39h10.3v55.5h-10.3V70.8h-22.2v23.7h-10.3V39z"/>
			<path class="st0" d="M246.2,38.9h9.5l20.5,55.6h-11l-4-11.8h-21.2l-4.2,11.8h-10.2L246.2,38.9z M258.2,73.8l-7.5-22.3h-0.2
				l-7.6,22.3H258.2z"/>
			<path class="st0" d="M282.6,39h12.6l14.3,34.7h0.2L323.6,39h12.6v55.5h-10v-37h-0.2l-12.6,30.6h-8.2l-12.6-30.4h-0.2v36.8h-10V39
				z"/>
			<path class="st0" d="M366.9,39h21.6c12.1,0,21.9,7.9,21.9,20.2V74c0,13.2-10.8,20.5-21.8,20.5h-21.7V39z M388.2,85.4
				c5.3,0,11.9-2.8,11.9-10.7v-16c0-6.7-5.8-10.5-12.3-10.5h-10.6v37.3H388.2z"/>
			<path class="st0" d="M420.2,39h38.5v9.1h-28.2v13.5h25v9.1h-25v14.6H459v9.1h-38.8V39z"/>
			<path class="st0" d="M463.5,81.7l9.3-3.7c2.1,5.4,7.2,8.4,13.4,8.4c5.6,0,10.9-2.2,10.9-7.3c0-4.1-3.3-6-7.6-7.2l-9.3-2.3
				c-7.4-1.9-13.3-5.2-13.3-15c0-10.4,9.1-16.5,19.8-16.5c9.3,0,16,3,19.5,11.4l-8.5,3.7c-2.4-4.7-6.5-6.4-11.9-6.4
				c-4.5,0-8.9,2-8.9,7c0,3.9,3.7,5.7,8.1,6.8l9.5,2.3c6.6,1.6,12.7,5.5,12.7,15.4c0,10.2-9.1,17-21.3,17
				C475.7,95.4,466.3,91.1,463.5,81.7z"/>
			<path class="st0" d="M516.1,39h10.3v55.5h-10.3V39z"/>
			<path class="st0" d="M536.2,76.3V58.5c0-13.2,10-20.5,22.2-20.5c10.6,0,21.2,5.2,21.2,17.6v1.7h-9.8v-0.8c0-7.2-6.3-9.3-11.4-9.3
				c-5.3,0-11.9,2.8-11.9,10.7v17.7c0,6.7,5.8,10.5,12.3,10.5c5.8,0,11-2.8,11-10v-1.3h-14.3v-9.3h24.1v11.6
				c0,12.4-10.2,18.3-20.8,18.3C546.7,95.4,536.2,88.7,536.2,76.3z"/>
			<path class="st0" d="M589.4,39h10l24.1,37.8h0.2V39h10v55.5h-10.1l-24-37.9h-0.2v37.9h-10V39z"/>
		</g>
	</g>
	<g>
		<g>
			<g>
				<line class="st1" x1="17.9" y1="71.4" x2="18.2" y2="71.7"/>
				<line class="st1" x1="18.6" y1="72.1" x2="18.9" y2="72.4"/>
			</g>
		</g>
		<g>
			<g>
				<line class="st1" x1="20.3" y1="70.7" x2="20.6" y2="71"/>
				<line class="st2" x1="21.5" y1="71.9" x2="22.4" y2="72.8"/>
				<line class="st1" x1="22.9" y1="73.3" x2="23.2" y2="73.5"/>
			</g>
		</g>
		<g>
			<g>
				<line class="st1" x1="22.7" y1="70" x2="23" y2="70.2"/>
				<line class="st3" x1="24" y1="71.3" x2="26.7" y2="73.9"/>
				<line class="st1" x1="27.2" y1="74.4" x2="27.5" y2="74.7"/>
			</g>
		</g>
		<g>
			<g>
				<line class="st1" x1="25.1" y1="69.2" x2="25.4" y2="69.5"/>
				<line class="st4" x1="26.5" y1="70.6" x2="30.9" y2="75"/>
				<line class="st1" x1="31.5" y1="75.6" x2="31.7" y2="75.8"/>
			</g>
		</g>
		<g>
			<g>
				<line class="st1" x1="27.5" y1="68.5" x2="27.8" y2="68.7"/>
				<line class="st5" x1="28.9" y1="69.9" x2="35.2" y2="76.1"/>
				<line class="st1" x1="35.8" y1="76.7" x2="36" y2="77"/>
			</g>
		</g>
		<g>
			<g>
				<line class="st1" x1="29.9" y1="67.7" x2="30.2" y2="68"/>
				<line class="st6" x1="31.2" y1="69" x2="39.9" y2="77.7"/>
				<line class="st1" x1="40.4" y1="78.2" x2="40.6" y2="78.4"/>
			</g>
		</g>
		<g>
			<g>
				<line class="st1" x1="32.4" y1="67" x2="32.6" y2="67.3"/>
				<line class="st7" x1="33.7" y1="68.3" x2="43.8" y2="78.5"/>
				<line class="st1" x1="44.3" y1="79" x2="44.6" y2="79.3"/>
			</g>
		</g>
		<g>
			<g>
				<line class="st1" x1="34.7" y1="66.3" x2="35" y2="66.5"/>
				<line class="st8" x1="36.1" y1="67.6" x2="48.1" y2="79.6"/>
				<line class="st1" x1="48.6" y1="80.2" x2="48.9" y2="80.4"/>
			</g>
		</g>
		<g>
			<g>
				<line class="st1" x1="37.1" y1="65.5" x2="37.4" y2="65.8"/>
				<line class="st9" x1="38.5" y1="66.9" x2="52.4" y2="80.8"/>
				<line class="st1" x1="52.9" y1="81.3" x2="53.2" y2="81.6"/>
			</g>
		</g>
		<g>
			<g>
				<line class="st1" x1="39.6" y1="64.8" x2="39.8" y2="65.1"/>
				<line class="st10" x1="40.9" y1="66.1" x2="56.7" y2="81.9"/>
				<line class="st1" x1="57.2" y1="82.5" x2="57.5" y2="82.7"/>
			</g>
		</g>
		<g>
			<g>
				<line class="st1" x1="42" y1="64" x2="42.2" y2="64.3"/>
				<line class="st11" x1="43.3" y1="65.4" x2="61" y2="83"/>
				<line class="st1" x1="61.5" y1="83.6" x2="61.8" y2="83.9"/>
			</g>
		</g>
		<g>
			<g>
				<line class="st1" x1="44.4" y1="63.3" x2="44.6" y2="63.6"/>
				<line class="st12" x1="45.6" y1="64.6" x2="65.2" y2="84.1"/>
				<line class="st1" x1="65.7" y1="84.6" x2="66" y2="84.9"/>
			</g>
		</g>
		<g>
			<g>
				<line class="st1" x1="46.8" y1="62.6" x2="47" y2="62.8"/>
				<line class="st13" x1="48.1" y1="63.9" x2="69.6" y2="85.4"/>
				<line class="st1" x1="70.1" y1="85.9" x2="70.3" y2="86.2"/>
			</g>
		</g>
		<g>
			<g>
				<line class="st1" x1="49.2" y1="61.8" x2="49.4" y2="62.1"/>
				<line class="st14" x1="50.5" y1="63.2" x2="73.8" y2="86.5"/>
				<line class="st1" x1="74.4" y1="87" x2="74.6" y2="87.3"/>
			</g>
		</g>
		<g>
			<g>
				<line class="st1" x1="51.6" y1="61.1" x2="51.8" y2="61.4"/>
				<line class="st15" x1="52.9" y1="62.4" x2="78.1" y2="87.7"/>
				<line class="st1" x1="78.7" y1="88.2" x2="78.9" y2="88.5"/>
			</g>
		</g>
		<g>
			<g>
				<line class="st1" x1="54" y1="60.4" x2="54.2" y2="60.6"/>
				<line class="st16" x1="55.3" y1="61.7" x2="82.4" y2="88.8"/>
				<line class="st1" x1="82.9" y1="89.3" x2="83.2" y2="89.6"/>
			</g>
		</g>
		<g>
			<g>
				<line class="st1" x1="56.4" y1="59.6" x2="56.6" y2="59.9"/>
				<line class="st17" x1="57.7" y1="60.9" x2="86.7" y2="90"/>
				<line class="st1" x1="87.2" y1="90.5" x2="87.5" y2="90.8"/>
			</g>
		</g>
		<g>
			<g>
				<line class="st1" x1="58.8" y1="58.9" x2="59" y2="59.1"/>
				<line class="st18" x1="60.1" y1="60.2" x2="91" y2="91.1"/>
				<line class="st1" x1="91.5" y1="91.6" x2="91.8" y2="91.9"/>
			</g>
		</g>
		<g>
			<g>
				<line class="st1" x1="61" y1="58" x2="61.3" y2="58.3"/>
				<line class="st19" x1="62.4" y1="59.3" x2="95.3" y2="92.3"/>
				<line class="st1" x1="95.8" y1="92.8" x2="96.1" y2="93.1"/>
			</g>
		</g>
	</g>
	<g>
		<line class="st20" x1="76.4" y1="12.1" x2="62.4" y2="57.8"/>
		<line class="st20" x1="98.2" y1="93.6" x2="62.4" y2="57.8"/>
		<polyline class="st20" points="98.2,93.6 76.4,12.1 16.7,71.8 98.2,93.6 76.4,12.1 		"/>
		<line class="st20" x1="16.7" y1="71.8" x2="62.4" y2="57.8"/>
	</g>
	<polyline class="st21" points="98.2,93.6 76.4,12.1 62.4,57.8 98.2,93.6 76.4,12.1 	"/>
</g>
</svg>
